<svg xmlns="http://www.w3.org/2000/svg" viewBox="0 0 512 512" role="img" aria-label="EnglishAPK">
  <defs>
    <linearGradient id="left" x1="0" y1="0" x2="1" y2="1">
      <stop offset="0" stop-color="#0A2E73"/>
      <stop offset="1" stop-color="#063B9B"/>
    </linearGradient>
    <linearGradient id="right" x1="0" y1="0" x2="1" y2="1">
      <stop offset="0" stop-color="#148BFF"/>
      <stop offset="1" stop-color="#0865E8"/>
    </linearGradient>
  </defs>
  <rect width="512" height="512" rx="92" fill="#FFFFFF"/>
  <g>
    <path d="M70 112c62-16 124-4 186 38v214c-58-39-120-52-186-32z" fill="url(#left)"/>
    <path d="M442 112c-62-16-124-4-186 38v214c58-39 120-52 186-32z" fill="url(#right)"/>
    <path d="M72 320c64-18 126-4 184 34 58-38 120-52 184-34v25c-67-18-130-5-184 35-54-40-117-53-184-35z" fill="#EAF4FF"/>
    <path d="M126 176h74v24h-46v28h42v23h-42v31h49v25h-77z" fill="#FFFFFF"/>
    <path d="M305 190h87M305 225h76M305 260h60" stroke="#FFFFFF" stroke-width="15" stroke-linecap="round"/>
    <path d="M327 62h91c35 0 58 22 58 55v18c0 33-23 55-58 55h-38l-39 30 7-32c-28-7-43-27-43-53v-18c0-33 22-55 52-55z" fill="#FF1833" stroke="#FFFFFF" stroke-width="8"/>
    <circle cx="365" cy="126" r="9" fill="#FFFFFF"/>
    <circle cx="397" cy="126" r="9" fill="#FFFFFF"/>
    <circle cx="429" cy="126" r="9" fill="#FFFFFF"/>
  </g>
  <text x="256" y="449" text-anchor="middle" font-family="Arial,Helvetica,sans-serif" font-size="60" font-weight="800">
    <tspan fill="#0A2E73">English</tspan><tspan fill="#FF1833">APK</tspan>
  </text>
</svg>
